<svg id="svg" version="1.1" xmlns="http://www.w3.org/2000/svg" xmlns:xlink="http://www.w3.org/1999/xlink" width="400" height="400" viewBox="0, 0, 400,400"><g id="svgg"><path id="path0" d="M200.000 25.349 L 200.000 41.098 201.566 41.348 C 202.428 41.486,203.193 41.734,203.266 41.899 C 203.340 42.065,204.120 42.692,205.000 43.293 C 205.880 43.893,207.123 44.838,207.762 45.393 C 208.401 45.947,209.076 46.400,209.262 46.400 C 209.448 46.400,209.921 46.715,210.313 47.100 C 210.706 47.485,211.831 48.340,212.813 49.000 C 215.200 50.603,215.171 50.582,216.978 52.086 C 217.846 52.809,218.402 53.130,218.214 52.800 C 217.943 52.325,219.305 53.324,220.397 54.401 C 220.508 54.511,221.095 54.856,221.700 55.168 C 222.305 55.480,222.800 55.882,222.800 56.062 C 222.800 56.242,223.430 56.652,224.200 56.974 C 224.970 57.296,225.600 57.778,225.600 58.046 C 225.600 58.314,225.705 58.428,225.834 58.300 C 225.962 58.171,226.418 58.366,226.847 58.733 C 227.275 59.100,227.768 59.400,227.942 59.400 C 228.442 59.400,231.194 61.365,231.197 61.724 C 231.199 61.902,231.354 61.952,231.542 61.836 C 231.730 61.720,232.296 62.064,232.800 62.600 C 233.304 63.136,233.850 63.493,234.013 63.392 C 234.176 63.291,234.532 63.477,234.804 63.804 C 235.076 64.132,235.475 64.400,235.691 64.400 C 235.908 64.400,236.761 64.935,237.586 65.589 C 238.412 66.243,239.203 66.663,239.344 66.523 C 239.485 66.382,239.600 66.459,239.600 66.694 C 239.600 66.929,240.095 67.317,240.700 67.555 C 241.823 67.997,242.132 68.178,245.065 70.100 C 245.989 70.705,246.922 71.200,247.139 71.200 C 247.356 71.200,247.597 71.390,247.674 71.622 C 247.751 71.854,248.081 72.084,248.407 72.133 C 248.733 72.182,249.270 72.397,249.600 72.611 C 250.698 73.322,251.793 73.965,252.400 74.255 C 252.730 74.413,253.090 74.653,253.200 74.790 C 253.310 74.926,254.447 75.569,255.727 76.219 C 257.007 76.868,258.402 77.578,258.827 77.795 C 259.252 78.012,259.600 78.313,259.600 78.463 C 259.600 78.613,260.500 79.035,261.600 79.400 C 262.700 79.765,263.600 80.195,263.600 80.355 C 263.600 80.515,264.365 80.976,265.300 81.378 C 266.235 81.781,267.270 82.334,267.600 82.606 C 267.930 82.879,268.875 83.340,269.700 83.631 C 270.525 83.922,271.200 84.276,271.200 84.416 C 271.200 84.557,271.965 84.918,272.900 85.219 C 273.835 85.520,274.728 85.954,274.885 86.183 C 275.042 86.412,275.312 86.616,275.485 86.635 C 275.990 86.690,277.382 87.319,277.600 87.590 C 277.710 87.727,278.565 88.062,279.500 88.336 C 280.435 88.609,281.200 89.005,281.200 89.216 C 281.200 89.427,281.468 89.600,281.797 89.600 C 282.125 89.600,284.589 90.620,287.273 91.867 C 289.958 93.113,292.389 94.133,292.677 94.133 C 292.965 94.133,293.200 94.294,293.200 94.490 C 293.200 94.687,293.380 94.736,293.600 94.600 C 293.820 94.464,294.000 94.543,294.000 94.776 C 294.000 95.009,294.326 95.200,294.724 95.200 C 295.121 95.200,295.796 95.464,296.224 95.787 C 296.651 96.110,297.369 96.380,297.820 96.387 C 298.271 96.394,298.827 96.587,299.055 96.815 C 299.283 97.043,299.994 97.323,300.635 97.438 C 301.276 97.553,301.860 97.816,301.933 98.024 C 302.007 98.231,302.310 98.400,302.607 98.400 C 302.905 98.400,303.655 98.608,304.274 98.861 C 305.555 99.386,306.378 99.628,307.100 99.690 C 307.375 99.714,307.600 99.883,307.600 100.067 C 307.600 100.250,308.039 100.400,308.576 100.400 C 309.113 100.400,309.655 100.566,309.781 100.769 C 309.906 100.972,310.586 101.265,311.291 101.420 C 311.997 101.575,312.850 101.838,313.187 102.005 C 313.524 102.171,315.060 102.698,316.600 103.174 C 318.140 103.651,319.760 104.189,320.200 104.371 C 322.744 105.419,323.320 105.600,324.119 105.602 C 324.603 105.604,325.540 105.887,326.200 106.233 C 326.860 106.578,327.908 106.925,328.529 107.005 C 330.214 107.220,332.148 107.663,332.600 107.936 C 333.060 108.214,333.298 108.277,335.163 108.618 C 337.155 108.983,338.400 109.520,338.400 110.014 C 338.400 110.252,338.567 110.344,338.772 110.217 C 338.976 110.091,339.373 110.620,339.652 111.394 C 339.932 112.167,340.302 112.800,340.475 112.800 C 340.809 112.800,340.609 125.490,340.232 128.200 C 340.110 129.080,339.906 132.410,339.778 135.600 C 339.650 138.790,339.366 143.020,339.148 145.000 C 338.554 150.367,338.474 151.164,338.240 154.000 C 337.888 158.277,337.249 163.732,336.975 164.800 C 336.651 166.061,336.486 167.191,336.186 170.181 C 336.055 171.490,335.842 172.731,335.714 172.938 C 335.467 173.340,335.159 175.152,335.059 176.800 C 335.026 177.350,334.884 177.980,334.745 178.200 C 334.605 178.420,334.381 179.800,334.248 181.266 C 334.115 182.732,333.829 184.397,333.613 184.966 C 333.397 185.535,333.327 186.000,333.459 186.000 C 333.590 186.000,333.519 186.225,333.301 186.500 C 333.083 186.775,332.781 188.129,332.631 189.509 C 332.481 190.889,332.086 192.779,331.753 193.709 C 331.420 194.639,331.059 196.106,330.950 196.969 C 330.842 197.832,330.498 199.149,330.186 199.896 C 329.874 200.643,329.635 201.377,329.656 201.527 C 329.677 201.677,329.660 201.890,329.618 202.000 C 329.575 202.110,329.458 202.650,329.358 203.200 C 329.258 203.750,328.970 204.920,328.718 205.800 C 328.466 206.680,328.299 207.625,328.347 207.900 C 328.396 208.175,328.226 208.400,327.971 208.400 C 327.691 208.400,327.583 208.798,327.698 209.400 C 327.803 209.950,327.734 210.400,327.545 210.400 C 327.355 210.400,327.200 210.904,327.200 211.520 C 327.200 212.136,326.984 212.856,326.720 213.120 C 326.456 213.384,326.388 213.600,326.569 213.600 C 326.750 213.600,326.705 213.832,326.470 214.116 C 326.038 214.636,325.176 217.605,325.080 218.900 C 325.052 219.285,324.887 219.600,324.714 219.600 C 324.541 219.600,324.400 219.939,324.400 220.354 C 324.400 221.189,323.166 225.285,322.820 225.600 C 322.699 225.710,322.537 226.250,322.459 226.800 C 322.382 227.350,322.118 228.160,321.874 228.600 C 321.630 229.040,321.468 229.535,321.515 229.700 C 321.562 229.865,321.435 230.000,321.232 230.000 C 320.915 230.000,320.048 232.824,319.913 234.300 C 319.887 234.575,319.717 234.800,319.533 234.800 C 319.350 234.800,319.200 235.149,319.200 235.576 C 319.200 236.003,319.020 236.464,318.800 236.600 C 318.580 236.736,318.400 237.287,318.400 237.824 C 318.400 238.361,318.201 238.800,317.957 238.800 C 317.714 238.800,317.609 239.046,317.725 239.348 C 317.840 239.649,317.592 240.459,317.173 241.148 C 316.754 241.836,316.521 242.400,316.655 242.400 C 316.789 242.400,316.674 242.670,316.400 243.000 C 316.126 243.330,316.014 243.600,316.152 243.600 C 316.289 243.600,316.041 244.272,315.601 245.094 C 315.160 245.916,314.800 246.739,314.800 246.923 C 314.800 247.107,314.530 247.527,314.200 247.857 C 313.870 248.187,313.600 248.799,313.600 249.216 C 313.600 249.634,313.243 250.611,312.807 251.388 C 312.371 252.165,312.115 252.800,312.239 252.800 C 312.364 252.800,312.076 253.430,311.600 254.200 C 311.124 254.970,310.852 255.600,310.995 255.600 C 311.138 255.600,310.882 256.123,310.427 256.762 C 309.972 257.401,309.596 258.166,309.591 258.462 C 309.586 258.758,309.230 259.450,308.800 260.000 C 308.370 260.550,308.014 261.315,308.009 261.700 C 308.004 262.085,307.790 262.400,307.533 262.400 C 307.277 262.400,307.181 262.515,307.322 262.655 C 307.462 262.795,307.205 263.432,306.751 264.069 C 306.297 264.707,305.884 265.509,305.834 265.850 C 305.784 266.192,305.251 267.088,304.651 267.841 C 304.050 268.593,303.668 269.387,303.803 269.605 C 303.937 269.822,303.857 270.000,303.624 270.000 C 303.391 270.000,303.242 270.135,303.294 270.300 C 303.412 270.677,300.885 275.100,300.369 275.419 C 300.159 275.549,300.079 275.804,300.191 275.986 C 300.304 276.167,300.126 276.419,299.798 276.546 C 299.469 276.672,299.200 277.029,299.200 277.338 C 299.200 277.648,298.926 278.130,298.590 278.408 C 298.255 278.686,298.073 279.007,298.187 279.120 C 298.300 279.234,298.177 279.587,297.912 279.906 C 297.648 280.225,297.244 280.821,297.016 281.231 C 296.787 281.641,296.133 282.657,295.562 283.488 C 294.991 284.320,293.124 287.115,291.413 289.700 C 289.702 292.285,288.144 294.400,287.951 294.400 C 287.758 294.400,287.600 294.651,287.600 294.958 C 287.600 295.265,287.153 295.940,286.607 296.458 C 286.061 296.976,285.611 297.610,285.607 297.867 C 285.603 298.123,285.457 298.393,285.282 298.467 C 285.107 298.540,284.292 299.500,283.471 300.600 C 281.014 303.894,280.249 304.867,279.200 306.037 C 278.650 306.650,277.390 308.097,276.400 309.253 C 273.588 312.538,258.102 328.114,256.677 329.092 C 255.975 329.574,254.573 330.741,253.563 331.684 C 249.786 335.211,248.318 336.400,247.744 336.400 C 247.419 336.400,247.242 336.545,247.352 336.722 C 247.461 336.899,246.932 337.378,246.176 337.785 C 245.419 338.193,244.800 338.678,244.800 338.863 C 244.800 339.048,244.536 339.200,244.214 339.200 C 243.892 339.200,243.446 339.541,243.223 339.958 C 242.999 340.375,242.260 340.910,241.578 341.148 C 240.787 341.423,240.445 341.750,240.632 342.051 C 240.804 342.329,240.752 342.418,240.507 342.266 C 240.278 342.125,239.868 342.277,239.596 342.604 C 239.324 342.932,238.937 343.200,238.734 343.200 C 238.532 343.200,237.969 343.572,237.483 344.027 C 236.368 345.070,230.209 349.207,228.606 349.988 C 227.943 350.312,227.137 350.832,226.816 351.144 C 226.495 351.456,225.685 351.948,225.016 352.237 C 224.347 352.527,222.990 353.311,222.000 353.980 C 221.010 354.649,220.003 355.197,219.761 355.198 C 219.520 355.199,218.907 355.560,218.400 356.000 C 217.893 356.440,217.250 356.800,216.972 356.800 C 216.694 356.800,216.407 356.942,216.333 357.116 C 216.260 357.289,214.220 358.405,211.800 359.595 C 209.380 360.784,207.130 361.979,206.800 362.250 C 206.470 362.521,206.020 362.777,205.800 362.819 C 205.580 362.861,204.950 363.075,204.400 363.293 C 203.850 363.512,202.635 363.784,201.700 363.897 L 200.000 364.104 200.000 378.052 C 200.000 391.990,200.163 393.601,201.375 391.641 C 201.497 391.443,202.858 391.155,204.398 391.000 C 205.939 390.845,207.200 390.577,207.200 390.403 C 207.200 390.092,209.045 389.484,209.356 389.693 C 209.444 389.752,209.914 389.440,210.400 389.000 C 210.886 388.560,211.400 388.234,211.542 388.274 C 211.684 388.315,212.610 387.973,213.600 387.513 C 214.590 387.053,215.625 386.712,215.900 386.756 C 216.175 386.799,216.400 386.661,216.400 386.449 C 216.400 386.236,217.075 385.845,217.900 385.580 C 218.725 385.316,219.670 384.866,220.000 384.581 C 220.330 384.296,221.094 383.939,221.697 383.788 C 222.316 383.634,222.682 383.332,222.535 383.096 C 222.376 382.838,222.472 382.797,222.783 382.989 C 223.062 383.162,223.404 383.144,223.545 382.951 C 223.685 382.758,224.160 382.377,224.600 382.104 C 225.675 381.438,228.550 379.849,228.800 379.784 C 229.676 379.553,230.748 378.948,231.532 378.240 C 232.045 377.778,232.585 377.422,232.732 377.449 C 233.200 377.535,234.163 377.096,235.394 376.235 C 236.619 375.379,236.998 375.159,239.852 373.645 C 240.760 373.164,241.819 372.421,242.205 371.994 C 242.591 371.568,243.064 371.316,243.256 371.435 C 243.448 371.554,243.709 371.382,243.835 371.053 C 243.961 370.725,244.545 370.266,245.132 370.034 C 245.719 369.802,246.548 369.384,246.973 369.106 C 249.298 367.586,253.968 364.273,255.066 363.365 C 255.762 362.789,256.399 362.381,256.480 362.459 C 256.562 362.537,257.253 362.016,258.015 361.302 C 258.777 360.588,259.615 360.003,259.877 360.002 C 260.140 360.001,260.635 359.600,260.977 359.111 C 261.320 358.622,261.600 358.365,261.600 358.540 C 261.600 358.714,261.851 358.619,262.158 358.329 C 262.465 358.038,263.306 357.350,264.026 356.800 C 264.746 356.250,265.755 355.403,266.268 354.918 C 266.780 354.433,267.200 354.155,267.200 354.300 C 267.200 354.446,267.906 353.808,268.769 352.882 C 269.632 351.957,270.458 351.200,270.604 351.200 C 270.751 351.200,271.659 350.390,272.621 349.400 C 273.583 348.410,274.542 347.600,274.751 347.600 C 275.248 347.600,291.540 331.388,292.724 329.715 C 293.224 329.008,294.301 327.742,295.117 326.901 C 295.932 326.061,297.320 324.508,298.200 323.450 C 299.080 322.393,300.250 321.024,300.800 320.409 C 302.736 318.243,303.600 317.129,303.600 316.800 C 303.600 316.617,304.140 315.958,304.800 315.335 C 305.460 314.712,306.000 313.977,306.000 313.701 C 306.000 313.426,306.152 313.200,306.337 313.200 C 306.522 313.200,307.007 312.581,307.415 311.824 C 307.822 311.068,308.301 310.539,308.478 310.648 C 308.655 310.758,308.800 310.598,308.800 310.293 C 308.800 309.989,309.250 309.317,309.800 308.800 C 310.350 308.283,310.800 307.636,310.800 307.361 C 310.800 307.086,311.250 306.327,311.800 305.673 C 312.350 305.019,312.800 304.385,312.800 304.263 C 312.800 304.141,313.250 303.556,313.800 302.962 C 314.350 302.369,314.800 301.639,314.800 301.342 C 314.800 301.044,314.958 300.800,315.151 300.800 C 315.345 300.800,315.727 300.260,316.000 299.600 C 316.273 298.940,316.642 298.400,316.820 298.400 C 316.997 298.400,317.460 297.680,317.848 296.800 C 318.236 295.920,318.699 295.200,318.877 295.200 C 319.055 295.200,319.200 294.930,319.200 294.600 C 319.200 294.270,319.578 293.622,320.040 293.160 C 320.503 292.697,321.237 291.572,321.673 290.660 C 322.511 288.903,323.727 286.709,325.142 284.400 C 325.614 283.630,326.197 282.505,326.439 281.900 C 326.681 281.295,327.004 280.800,327.159 280.800 C 327.313 280.800,327.675 280.125,327.964 279.300 C 328.253 278.475,329.009 276.974,329.644 275.965 C 330.280 274.956,330.800 273.921,330.800 273.665 C 330.800 273.409,330.980 273.200,331.200 273.200 C 331.420 273.200,331.568 273.065,331.529 272.900 C 331.490 272.735,331.945 271.531,332.541 270.225 C 333.136 268.918,333.727 267.435,333.854 266.928 C 333.981 266.420,334.227 266.093,334.400 266.200 C 334.573 266.307,334.829 265.940,334.968 265.384 C 335.108 264.828,335.659 263.385,336.193 262.178 C 336.726 260.971,337.173 259.898,337.184 259.793 C 337.196 259.688,337.731 258.575,338.375 257.318 C 339.018 256.062,339.456 254.891,339.349 254.717 C 339.241 254.543,339.343 254.400,339.576 254.400 C 339.809 254.400,340.000 254.097,340.000 253.726 C 340.000 253.356,340.376 252.231,340.836 251.226 C 341.955 248.781,342.425 247.522,343.906 243.000 C 344.266 241.900,344.720 240.890,344.914 240.755 C 345.109 240.621,345.224 240.441,345.170 240.355 C 345.019 240.116,346.058 237.058,346.466 236.543 C 346.665 236.291,346.903 235.486,346.996 234.754 C 347.214 233.031,348.109 230.000,348.400 230.000 C 348.524 230.000,348.666 229.513,348.715 228.918 C 348.764 228.322,348.984 227.656,349.202 227.438 C 349.421 227.219,349.600 226.626,349.600 226.120 C 349.600 225.614,349.791 225.200,350.024 225.200 C 350.257 225.200,350.331 225.012,350.189 224.782 C 350.047 224.553,350.149 224.103,350.415 223.782 C 350.680 223.462,350.809 223.200,350.700 223.200 C 350.517 223.200,351.165 220.699,352.618 215.800 C 352.944 214.700,353.290 213.301,353.388 212.691 C 353.485 212.080,353.680 211.394,353.821 211.166 C 353.962 210.938,354.159 210.177,354.258 209.475 C 354.357 208.774,354.547 207.930,354.679 207.600 C 354.812 207.270,354.974 206.730,355.038 206.400 C 355.103 206.070,355.336 205.080,355.557 204.200 C 355.778 203.320,356.089 201.880,356.248 201.000 C 356.408 200.120,356.555 199.310,356.575 199.200 C 356.596 199.090,356.738 198.803,356.892 198.562 C 357.045 198.321,357.289 197.331,357.433 196.362 C 357.577 195.393,358.008 193.160,358.390 191.400 C 358.773 189.640,359.097 187.840,359.110 187.400 C 359.123 186.960,359.335 185.520,359.581 184.200 C 359.827 182.880,360.058 181.395,360.094 180.900 C 360.130 180.405,360.259 180.000,360.381 180.000 C 360.502 180.000,360.638 179.505,360.682 178.900 C 360.857 176.515,361.639 171.103,362.199 168.400 C 362.313 167.850,362.489 166.590,362.591 165.600 C 362.692 164.610,362.982 161.910,363.234 159.600 C 363.487 157.290,363.765 154.680,363.853 153.800 C 363.941 152.920,364.095 151.570,364.196 150.800 C 364.297 150.030,364.484 146.880,364.612 143.800 C 364.739 140.720,364.952 137.750,365.085 137.200 C 365.917 133.745,366.038 96.654,365.226 94.000 C 364.227 90.737,360.273 87.746,356.447 87.359 C 355.482 87.261,354.492 87.053,354.247 86.897 C 354.001 86.740,353.530 86.607,353.200 86.600 C 352.870 86.593,352.398 86.459,352.152 86.303 C 351.906 86.146,350.736 85.903,349.552 85.763 C 348.368 85.623,346.787 85.257,346.039 84.949 C 345.290 84.641,344.586 84.480,344.475 84.591 C 344.364 84.702,344.032 84.593,343.737 84.348 C 343.442 84.103,343.200 83.997,343.200 84.113 C 343.200 84.420,338.685 83.197,338.130 82.739 C 337.871 82.526,337.421 82.392,337.130 82.441 C 336.469 82.553,334.687 82.115,332.600 81.329 C 331.720 80.998,330.910 80.721,330.800 80.715 C 330.690 80.709,330.183 80.546,329.674 80.352 C 329.165 80.158,328.500 80.000,328.198 80.000 C 327.895 80.000,327.528 79.808,327.383 79.573 C 327.238 79.338,326.905 79.228,326.643 79.328 C 326.381 79.429,325.825 79.261,325.407 78.956 C 324.989 78.650,324.242 78.400,323.747 78.400 C 323.252 78.400,322.728 78.208,322.583 77.973 C 322.438 77.738,322.105 77.628,321.843 77.728 C 321.581 77.829,321.025 77.661,320.607 77.356 C 320.189 77.050,319.504 76.800,319.084 76.800 C 318.373 76.800,317.595 76.504,314.000 74.868 C 313.230 74.517,312.480 74.224,312.333 74.215 C 312.187 74.207,311.932 74.065,311.767 73.900 C 311.602 73.735,311.182 73.599,310.833 73.598 C 310.485 73.596,309.684 73.326,309.054 72.998 C 308.424 72.669,307.764 72.400,307.587 72.400 C 307.411 72.400,306.396 72.010,305.333 71.533 C 304.270 71.056,303.310 70.636,303.200 70.599 C 303.090 70.563,302.493 70.323,301.874 70.066 C 301.255 69.810,300.580 69.600,300.374 69.600 C 300.168 69.600,300.000 69.420,300.000 69.200 C 300.000 68.980,299.703 68.800,299.340 68.800 C 298.633 68.800,296.845 68.006,289.600 64.472 C 287.070 63.238,284.910 62.216,284.800 62.201 C 284.537 62.166,281.004 60.346,279.100 59.265 C 278.275 58.797,277.600 58.528,277.600 58.669 C 277.600 58.809,277.285 58.653,276.900 58.323 C 276.159 57.686,274.776 57.039,274.338 57.124 C 274.194 57.152,273.857 56.910,273.589 56.587 C 273.321 56.264,272.869 56.000,272.584 56.000 C 272.300 56.000,272.007 55.850,271.933 55.667 C 271.860 55.484,270.810 54.855,269.600 54.270 C 268.390 53.685,266.860 52.846,266.200 52.407 C 265.540 51.968,264.730 51.488,264.400 51.339 C 264.070 51.191,263.305 50.727,262.700 50.308 C 262.095 49.888,261.600 49.670,261.600 49.822 C 261.600 49.974,261.311 49.858,260.957 49.565 C 260.239 48.969,259.270 48.397,257.200 47.350 C 256.430 46.960,255.710 46.530,255.600 46.394 C 255.168 45.861,251.631 43.600,251.228 43.600 C 250.993 43.600,250.800 43.438,250.800 43.239 C 250.800 43.041,250.237 42.682,249.548 42.442 C 248.860 42.202,247.845 41.554,247.294 41.003 C 246.742 40.451,246.045 40.000,245.745 40.000 C 245.445 40.000,245.200 39.842,245.200 39.649 C 245.200 39.455,244.660 39.073,244.000 38.800 C 243.340 38.527,242.800 38.134,242.800 37.928 C 242.800 37.722,242.619 37.665,242.397 37.802 C 242.176 37.939,241.886 37.769,241.754 37.425 C 241.622 37.081,241.277 36.800,240.986 36.800 C 240.695 36.800,240.142 36.485,239.757 36.100 C 239.372 35.715,238.983 35.463,238.893 35.541 C 238.802 35.619,238.293 35.304,237.761 34.841 C 237.229 34.378,236.648 34.000,236.469 34.000 C 236.290 34.000,235.539 33.460,234.800 32.800 C 234.061 32.140,233.263 31.597,233.028 31.593 C 232.793 31.589,232.171 31.134,231.646 30.581 C 231.121 30.027,230.617 29.649,230.527 29.740 C 230.436 29.831,229.965 29.572,229.481 29.164 C 227.487 27.486,224.182 25.009,223.932 25.004 C 223.785 25.002,223.245 24.640,222.732 24.200 C 222.219 23.760,221.273 23.060,220.629 22.645 C 219.986 22.229,219.065 21.464,218.584 20.945 C 218.102 20.425,217.498 20.000,217.242 20.000 C 216.985 20.000,216.672 19.731,216.546 19.402 C 216.419 19.074,216.161 18.901,215.971 19.018 C 215.781 19.135,215.397 18.864,215.117 18.416 C 214.837 17.967,214.416 17.600,214.182 17.600 C 213.948 17.600,213.091 16.991,212.278 16.246 C 211.465 15.501,210.800 14.994,210.800 15.118 C 210.800 15.242,210.289 14.772,209.664 14.072 C 209.040 13.372,208.419 12.800,208.285 12.800 C 208.151 12.800,207.579 12.372,207.015 11.849 C 206.035 10.940,204.406 10.360,202.533 10.251 C 202.057 10.223,201.532 10.065,201.367 9.900 C 200.073 8.606,200.000 9.435,200.000 25.349 M200.000 203.636 L 200.000 358.114 202.300 357.855 C 205.370 357.509,205.700 357.441,206.400 357.000 C 206.730 356.792,207.202 356.592,207.449 356.554 C 207.695 356.517,208.397 356.158,209.009 355.758 C 209.620 355.357,210.403 354.988,210.749 354.937 C 211.095 354.886,211.581 354.567,211.829 354.229 C 212.076 353.890,212.396 353.730,212.540 353.873 C 212.683 354.016,212.800 353.893,212.800 353.600 C 212.800 353.307,212.911 353.178,213.048 353.314 C 213.184 353.450,213.558 353.299,213.880 352.977 C 214.201 352.656,214.596 352.474,214.757 352.574 C 214.918 352.673,215.549 352.326,216.159 351.802 C 216.769 351.277,217.805 350.731,218.462 350.586 C 219.120 350.442,219.551 350.217,219.421 350.087 C 219.291 349.957,219.953 349.501,220.892 349.074 C 221.831 348.646,223.872 347.419,225.428 346.348 C 226.983 345.277,228.378 344.400,228.527 344.400 C 228.895 344.400,232.966 341.488,233.133 341.105 C 233.207 340.937,233.431 340.800,233.632 340.800 C 234.067 340.800,238.141 337.945,238.333 337.505 C 238.407 337.337,238.648 337.200,238.869 337.200 C 239.090 337.200,240.197 336.390,241.329 335.400 C 242.460 334.410,243.543 333.600,243.736 333.600 C 243.928 333.600,244.446 333.141,244.888 332.579 C 245.330 332.017,245.769 331.635,245.864 331.730 C 245.958 331.825,246.547 331.429,247.172 330.851 C 250.871 327.427,252.128 326.400,252.622 326.400 C 252.926 326.400,253.434 325.905,253.751 325.300 C 254.068 324.695,254.479 324.200,254.664 324.200 C 254.849 324.200,254.955 324.065,254.900 323.900 C 254.845 323.735,254.980 323.600,255.200 323.600 C 256.053 323.600,269.117 310.663,268.932 310.000 C 268.866 309.764,270.130 308.554,270.290 308.700 C 270.351 308.755,270.410 308.665,270.421 308.500 C 270.433 308.335,270.883 307.969,271.421 307.687 C 271.960 307.405,272.400 306.912,272.400 306.591 C 272.400 306.270,273.210 305.245,274.200 304.314 C 275.190 303.382,276.004 302.435,276.009 302.210 C 276.014 301.984,276.846 300.900,277.858 299.800 C 278.871 298.700,280.150 297.125,280.703 296.300 C 281.255 295.475,281.873 294.800,282.077 294.800 C 282.281 294.800,282.342 294.629,282.212 294.420 C 282.083 294.211,282.343 293.845,282.789 293.606 C 283.235 293.367,283.600 292.991,283.600 292.769 C 283.600 292.547,284.365 291.362,285.300 290.135 C 286.235 288.908,287.180 287.608,287.400 287.246 C 289.131 284.400,289.790 283.373,289.993 283.200 C 290.375 282.876,293.858 277.063,294.128 276.300 C 294.264 275.915,294.541 275.600,294.744 275.600 C 294.947 275.600,295.226 275.150,295.364 274.600 C 295.502 274.050,295.792 273.600,296.008 273.600 C 296.223 273.600,296.404 273.375,296.409 273.100 C 296.414 272.825,296.770 272.150,297.200 271.600 C 297.630 271.050,297.986 270.285,297.991 269.900 C 297.996 269.515,298.180 269.200,298.400 269.200 C 298.620 269.200,298.800 268.972,298.800 268.693 C 298.800 268.414,299.269 267.496,299.841 266.653 C 300.414 265.811,300.915 264.896,300.956 264.621 C 300.996 264.345,301.330 263.662,301.697 263.102 C 302.064 262.542,302.480 261.622,302.621 261.058 C 302.763 260.494,303.131 259.823,303.439 259.567 C 303.748 259.311,304.000 258.764,304.000 258.351 C 304.000 257.938,304.210 257.600,304.467 257.600 C 304.723 257.600,304.819 257.485,304.678 257.345 C 304.538 257.205,304.795 256.568,305.249 255.931 C 305.703 255.293,306.110 254.535,306.152 254.246 C 306.195 253.957,306.538 253.249,306.915 252.674 C 307.292 252.099,307.600 251.526,307.600 251.401 C 307.600 251.276,307.842 250.595,308.138 249.887 C 308.434 249.179,308.703 248.465,308.737 248.300 C 308.771 248.134,309.152 247.341,309.583 246.536 C 310.015 245.730,310.275 244.921,310.160 244.736 C 310.046 244.551,310.124 244.400,310.333 244.400 C 310.699 244.400,311.401 242.518,311.266 241.900 C 311.230 241.735,311.380 241.600,311.600 241.600 C 311.820 241.600,312.000 241.251,312.000 240.824 C 312.000 240.397,312.180 239.936,312.400 239.800 C 312.620 239.664,312.800 239.113,312.800 238.576 C 312.800 238.039,312.999 237.600,313.243 237.600 C 313.486 237.600,313.591 237.354,313.475 237.052 C 313.360 236.751,313.608 235.941,314.027 235.252 C 314.446 234.564,314.695 234.000,314.580 234.000 C 314.466 234.000,314.597 233.595,314.872 233.100 C 315.147 232.605,315.401 232.065,315.436 231.900 C 315.471 231.735,315.545 231.510,315.600 231.400 C 315.655 231.290,315.738 231.065,315.785 230.900 C 315.899 230.493,316.399 229.175,316.808 228.200 C 316.993 227.760,317.350 226.680,317.603 225.800 C 317.855 224.920,318.168 223.930,318.299 223.600 C 318.431 223.270,318.589 222.562,318.651 222.027 C 318.713 221.492,318.935 220.592,319.144 220.027 C 319.777 218.320,320.055 217.408,319.992 217.245 C 319.959 217.159,320.125 216.970,320.361 216.824 C 320.597 216.678,320.967 215.668,321.183 214.579 C 321.863 211.142,321.947 210.808,322.266 210.298 C 322.437 210.024,322.617 209.620,322.665 209.400 C 323.074 207.542,323.199 207.034,323.423 206.328 C 323.564 205.884,323.743 205.133,323.820 204.660 C 323.933 203.973,324.662 200.837,325.322 198.200 C 325.377 197.980,325.549 197.598,325.703 197.352 C 325.857 197.106,326.099 195.936,326.242 194.752 C 326.385 193.568,326.654 192.195,326.841 191.700 C 327.028 191.205,327.088 190.800,326.976 190.800 C 326.864 190.800,326.967 190.435,327.206 189.990 C 327.444 189.544,327.718 188.599,327.814 187.890 C 328.023 186.346,328.342 184.702,329.038 181.600 C 329.272 180.555,330.300 173.934,330.573 171.718 C 330.660 171.013,330.830 170.274,330.952 170.077 C 331.074 169.880,331.360 167.757,331.588 165.359 C 331.815 162.962,332.115 160.550,332.254 160.000 C 332.618 158.558,332.883 156.042,333.641 146.800 C 334.083 141.411,334.197 140.198,334.583 136.800 C 334.864 134.320,335.015 119.153,334.767 118.340 C 334.656 117.978,334.376 117.438,334.145 117.140 C 333.913 116.843,333.602 116.259,333.453 115.843 C 333.303 115.426,333.066 115.201,332.925 115.341 C 332.785 115.482,332.342 115.058,331.941 114.399 C 331.540 113.739,330.954 113.200,330.639 113.200 C 330.324 113.200,330.005 113.016,329.930 112.791 C 329.855 112.566,329.255 112.291,328.597 112.180 C 327.939 112.068,327.130 111.863,326.800 111.723 C 326.470 111.583,326.110 111.450,326.000 111.426 C 325.105 111.234,319.407 109.373,317.847 108.763 C 316.772 108.343,315.568 108.000,315.170 108.000 C 314.773 108.000,314.336 107.820,314.200 107.600 C 314.064 107.380,313.618 107.200,313.210 107.200 C 312.801 107.200,311.596 106.810,310.533 106.333 C 309.470 105.856,308.465 105.428,308.300 105.383 C 308.135 105.337,307.955 105.264,307.900 105.220 C 307.845 105.176,307.350 105.058,306.800 104.958 C 306.250 104.857,305.080 104.452,304.200 104.058 C 303.320 103.663,301.700 103.020,300.600 102.628 C 295.420 100.784,294.186 100.304,294.000 100.061 C 293.890 99.918,293.530 99.748,293.200 99.685 C 292.870 99.622,291.129 98.947,289.331 98.185 C 287.532 97.423,285.867 96.800,285.631 96.800 C 285.394 96.800,285.200 96.620,285.200 96.400 C 285.200 96.180,285.065 96.031,284.900 96.070 C 284.555 96.150,282.299 95.139,282.000 94.770 C 281.890 94.634,281.260 94.391,280.600 94.230 C 279.940 94.069,279.130 93.704,278.800 93.419 C 278.470 93.134,277.525 92.684,276.700 92.420 C 275.875 92.155,275.200 91.800,275.200 91.632 C 275.200 91.464,274.480 91.111,273.600 90.847 C 272.720 90.584,272.000 90.176,272.000 89.941 C 272.000 89.706,271.730 89.618,271.400 89.745 C 271.070 89.871,270.800 89.804,270.800 89.595 C 270.800 89.386,270.350 89.102,269.800 88.964 C 269.250 88.826,268.800 88.534,268.800 88.314 C 268.800 88.094,268.521 88.022,268.179 88.153 C 267.838 88.284,267.657 88.232,267.776 88.038 C 267.896 87.844,267.501 87.562,266.897 87.412 C 266.294 87.261,265.496 86.864,265.125 86.530 C 264.754 86.195,264.259 86.040,264.025 86.184 C 263.791 86.329,263.600 86.257,263.600 86.024 C 263.600 85.791,263.343 85.600,263.029 85.600 C 262.714 85.600,262.176 85.319,261.832 84.974 C 261.488 84.630,261.040 84.452,260.837 84.577 C 260.634 84.702,260.408 84.669,260.334 84.502 C 260.139 84.062,256.800 81.940,256.800 82.256 C 256.800 82.404,256.470 82.226,256.068 81.861 C 255.665 81.497,255.244 81.290,255.132 81.402 C 255.020 81.513,254.602 81.244,254.202 80.802 C 253.803 80.361,253.189 79.996,252.838 79.991 C 252.487 79.986,251.750 79.630,251.200 79.200 C 250.650 78.770,249.997 78.414,249.749 78.409 C 249.501 78.404,249.076 78.132,248.804 77.804 C 248.532 77.477,248.150 77.307,247.955 77.428 C 247.760 77.549,247.600 77.457,247.600 77.224 C 247.600 76.991,247.364 76.800,247.075 76.800 C 246.787 76.800,246.116 76.395,245.585 75.900 C 245.053 75.405,244.615 75.057,244.609 75.126 C 244.588 75.417,242.939 74.584,242.225 73.920 C 241.798 73.524,241.241 73.200,240.986 73.200 C 240.731 73.200,240.107 72.840,239.600 72.400 C 239.093 71.960,238.475 71.600,238.228 71.600 C 237.980 71.600,237.463 71.232,237.078 70.783 C 236.693 70.334,236.203 70.074,235.989 70.207 C 235.775 70.339,235.600 70.269,235.600 70.051 C 235.600 69.832,235.195 69.530,234.700 69.380 C 234.205 69.229,233.484 68.828,233.097 68.488 C 232.222 67.720,230.932 66.961,229.500 66.373 C 228.895 66.125,228.400 65.762,228.400 65.566 C 228.400 65.371,227.770 64.948,227.000 64.626 C 226.230 64.304,225.600 63.869,225.600 63.660 C 225.600 63.450,225.060 63.090,224.400 62.860 C 223.740 62.630,223.200 62.256,223.200 62.028 C 223.200 61.801,222.750 61.502,222.200 61.364 C 221.650 61.226,221.200 60.978,221.200 60.813 C 221.200 60.536,217.110 57.609,216.200 57.236 C 215.980 57.145,214.863 56.380,213.717 55.536 C 212.571 54.691,211.513 54.000,211.364 54.000 C 211.215 54.000,210.758 53.612,210.347 53.139 C 209.936 52.665,209.600 52.386,209.600 52.518 C 209.600 52.650,208.454 51.989,207.052 51.050 C 204.895 49.603,204.159 49.327,202.252 49.250 L 200.000 49.159 200.000 203.636 " stroke="none" fill="#33a4fc" fill-rule="evenodd"></path><path id="path1" d="M196.508 10.205 C 194.375 10.668,193.539 11.144,190.708 13.505 C 186.865 16.708,178.789 22.923,174.891 25.675 C 174.170 26.184,173.154 26.960,172.631 27.400 C 172.108 27.840,170.470 29.010,168.990 30.000 C 167.510 30.990,165.962 32.115,165.550 32.500 C 165.137 32.885,164.700 33.200,164.577 33.200 C 164.454 33.200,163.195 34.010,161.779 35.000 C 160.362 35.990,159.085 36.800,158.940 36.800 C 158.794 36.800,158.119 37.218,157.438 37.729 C 156.757 38.241,155.885 38.775,155.500 38.917 C 155.115 39.059,154.800 39.361,154.800 39.587 C 154.800 39.814,154.604 40.000,154.365 40.000 C 154.126 40.000,153.181 40.501,152.265 41.114 C 151.349 41.727,150.240 42.447,149.800 42.714 C 149.360 42.980,147.595 44.054,145.878 45.099 C 141.140 47.983,140.815 48.177,137.724 49.943 C 136.142 50.847,134.162 51.985,133.324 52.471 C 132.486 52.958,131.015 53.765,130.055 54.266 C 129.095 54.767,128.105 55.345,127.855 55.551 C 127.266 56.035,106.545 66.400,106.167 66.400 C 106.009 66.400,104.872 66.872,103.640 67.450 C 98.655 69.787,95.277 71.256,93.200 71.990 C 92.430 72.263,91.260 72.717,90.600 73.000 C 89.940 73.283,88.320 73.907,87.000 74.387 C 85.680 74.867,83.790 75.600,82.800 76.016 C 81.810 76.432,80.190 76.990,79.200 77.256 C 78.210 77.522,77.220 77.861,77.000 78.008 C 76.780 78.155,75.700 78.512,74.600 78.800 C 73.500 79.088,72.420 79.456,72.200 79.617 C 71.980 79.778,70.360 80.314,68.600 80.807 C 66.840 81.301,64.230 82.051,62.800 82.476 C 61.370 82.900,59.210 83.483,58.000 83.770 C 56.790 84.058,54.630 84.581,53.200 84.932 C 45.820 86.743,43.733 87.210,43.039 87.205 C 39.991 87.184,35.498 91.086,34.600 94.537 C 33.755 97.781,33.758 127.987,34.604 135.000 C 34.923 137.640,35.198 141.330,35.215 143.200 C 35.233 145.070,35.491 148.850,35.788 151.600 C 36.085 154.350,36.608 159.300,36.950 162.600 C 37.293 165.900,37.744 169.230,37.953 170.000 C 38.162 170.770,38.620 173.470,38.972 176.000 C 39.915 182.789,41.124 190.331,41.419 191.261 C 41.562 191.709,42.034 193.724,42.470 195.738 C 42.906 197.752,43.599 200.840,44.010 202.600 C 44.422 204.360,45.126 207.420,45.576 209.400 C 46.026 211.380,46.859 214.620,47.428 216.600 C 47.997 218.580,48.698 221.100,48.986 222.200 C 49.684 224.869,51.528 230.438,51.982 231.251 C 52.182 231.609,52.476 232.599,52.635 233.451 C 52.886 234.787,55.229 241.585,56.963 246.000 C 57.265 246.770,58.002 248.660,58.600 250.200 C 60.530 255.169,63.658 262.506,65.420 266.200 C 66.364 268.180,67.599 270.790,68.165 272.000 C 69.513 274.886,73.517 282.318,76.922 288.254 C 79.254 292.320,80.808 294.859,84.000 299.818 C 84.330 300.331,85.860 302.579,87.400 304.814 C 88.940 307.050,90.467 309.266,90.793 309.739 C 91.119 310.213,91.614 310.744,91.893 310.920 C 92.172 311.096,92.400 311.423,92.400 311.647 C 92.400 312.000,93.863 313.984,96.790 317.600 C 97.235 318.150,98.178 319.320,98.885 320.200 C 99.592 321.080,100.958 322.700,101.920 323.800 C 102.883 324.900,104.599 326.861,105.735 328.158 C 111.054 334.230,126.499 349.192,132.400 353.987 C 134.050 355.327,135.665 356.644,135.989 356.912 C 137.781 358.395,142.042 361.600,142.223 361.600 C 142.339 361.600,142.651 361.790,142.917 362.023 C 143.463 362.501,148.640 366.284,150.003 367.200 C 150.493 367.530,151.592 368.295,152.444 368.900 C 153.296 369.505,154.113 370.000,154.259 370.000 C 154.487 370.000,157.314 371.799,161.284 374.471 C 161.880 374.872,162.542 375.200,162.755 375.200 C 162.968 375.200,163.395 375.452,163.702 375.759 C 164.010 376.067,165.328 376.876,166.631 377.557 C 167.934 378.239,170.620 379.698,172.600 380.801 C 177.563 383.564,187.205 388.277,191.712 390.143 C 192.543 390.487,194.343 390.968,195.712 391.211 C 197.080 391.454,198.605 391.751,199.100 391.870 L 200.000 392.087 200.000 378.098 L 200.000 364.109 198.300 363.871 C 196.725 363.650,180.937 355.967,178.623 354.294 C 177.313 353.348,175.128 352.000,174.904 352.000 C 174.760 352.000,174.003 351.579,173.222 351.064 C 172.440 350.549,169.910 348.884,167.600 347.364 C 162.649 344.106,158.900 341.402,154.327 337.794 C 153.077 336.807,151.927 336.000,151.773 336.000 C 151.618 336.000,151.090 335.595,150.599 335.100 C 150.107 334.605,147.875 332.670,145.637 330.800 C 138.494 324.830,125.191 311.140,118.818 303.200 C 117.809 301.943,114.213 297.306,113.292 296.075 C 112.911 295.566,112.285 294.801,111.900 294.375 C 111.515 293.949,111.200 293.512,111.200 293.405 C 111.200 293.233,108.951 289.800,103.992 282.400 C 102.744 280.538,98.695 273.673,96.325 269.400 C 94.062 265.319,86.998 250.689,85.413 246.800 C 83.213 241.400,82.703 240.167,82.189 239.000 C 81.404 237.215,80.011 233.260,79.399 231.077 C 79.103 230.020,78.696 228.940,78.494 228.677 C 78.292 228.415,77.551 226.310,76.846 224.000 C 76.141 221.690,75.380 219.260,75.154 218.600 C 73.237 213.005,69.219 197.585,67.546 189.400 C 67.321 188.300,66.796 185.780,66.380 183.800 C 65.964 181.820,65.424 178.675,65.180 176.811 C 64.937 174.948,64.639 173.263,64.519 173.069 C 63.270 171.048,60.372 139.973,59.774 122.200 C 59.354 109.679,58.995 110.166,70.800 107.237 C 72.450 106.828,74.340 106.307,75.000 106.080 C 75.660 105.854,78.090 105.081,80.400 104.363 C 82.710 103.645,84.780 102.935,85.000 102.786 C 85.220 102.637,86.300 102.298,87.400 102.032 C 88.500 101.766,89.763 101.313,90.206 101.026 C 90.649 100.740,91.638 100.367,92.404 100.199 C 93.170 100.031,94.338 99.654,94.998 99.361 C 95.659 99.068,97.460 98.358,99.000 97.784 C 111.503 93.119,130.919 83.912,145.000 75.970 C 146.100 75.349,147.630 74.524,148.400 74.137 C 149.170 73.749,150.070 73.223,150.400 72.967 C 150.730 72.712,152.040 71.931,153.311 71.233 C 154.582 70.535,156.472 69.443,157.511 68.808 C 158.550 68.172,160.210 67.161,161.200 66.561 C 164.959 64.284,174.730 57.878,180.800 53.710 C 186.262 49.959,186.982 49.428,187.320 48.900 C 187.496 48.625,187.836 48.400,188.075 48.400 C 188.420 48.400,193.956 44.447,194.800 43.599 C 195.676 42.718,198.411 41.200,199.122 41.200 L 200.000 41.200 200.000 25.400 C 200.000 13.010,199.892 9.607,199.500 9.632 C 199.225 9.649,197.879 9.907,196.508 10.205 M255.603 46.277 C 255.606 46.606,257.645 47.688,257.859 47.475 C 257.923 47.411,257.441 47.042,256.788 46.656 C 256.134 46.270,255.601 46.100,255.603 46.277 M194.581 49.706 C 192.052 51.231,191.205 51.831,191.203 52.100 C 191.201 52.265,190.986 52.400,190.725 52.400 C 190.464 52.400,189.219 53.210,187.959 54.200 C 186.699 55.190,185.561 56.000,185.430 56.000 C 185.300 56.000,184.496 56.495,183.644 57.100 C 182.792 57.705,181.758 58.427,181.347 58.704 C 180.936 58.981,179.384 60.061,177.897 61.104 C 174.729 63.326,172.083 65.083,170.221 66.200 C 167.113 68.065,163.654 70.214,161.600 71.556 C 159.057 73.217,157.488 74.160,155.800 75.042 C 155.140 75.387,153.763 76.149,152.741 76.735 C 148.524 79.151,144.504 81.370,143.000 82.114 C 142.120 82.549,141.310 83.021,141.200 83.163 C 140.778 83.705,116.045 95.754,112.400 97.193 C 111.190 97.670,109.480 98.395,108.600 98.802 C 107.720 99.210,105.740 100.028,104.200 100.621 C 102.660 101.214,100.860 101.928,100.200 102.208 C 97.486 103.361,93.554 104.800,93.118 104.800 C 92.862 104.800,91.921 105.138,91.026 105.552 C 89.249 106.373,86.512 107.327,83.400 108.209 C 82.300 108.521,81.040 108.951,80.600 109.164 C 79.958 109.475,74.038 111.325,70.720 112.251 C 69.860 112.491,66.815 115.420,65.784 117.000 C 64.899 118.354,64.779 132.966,65.594 140.000 C 65.810 141.870,66.175 145.830,66.404 148.800 C 66.633 151.770,67.009 155.460,67.239 157.000 C 67.469 158.540,67.998 162.410,68.415 165.600 C 69.358 172.813,70.665 181.203,70.971 182.000 C 71.097 182.330,71.566 184.490,72.011 186.800 C 73.730 195.706,73.964 196.786,74.323 197.482 C 74.527 197.877,74.923 199.460,75.203 201.000 C 75.484 202.540,75.879 204.246,76.081 204.791 C 76.283 205.336,76.712 207.032,77.034 208.561 C 77.355 210.090,77.771 211.534,77.957 211.770 C 78.143 212.007,78.424 212.920,78.581 213.800 C 78.738 214.680,79.111 215.940,79.410 216.600 C 79.709 217.260,80.153 218.610,80.396 219.600 C 80.941 221.809,84.399 232.048,84.787 232.600 C 84.942 232.820,85.385 234.035,85.771 235.299 C 86.158 236.564,86.637 237.699,86.837 237.823 C 87.037 237.946,87.200 238.315,87.200 238.643 C 87.200 238.971,87.560 239.984,88.000 240.894 C 88.440 241.805,88.800 242.698,88.800 242.879 C 88.800 245.076,101.396 269.906,106.413 277.600 C 107.059 278.590,107.810 279.850,108.082 280.400 C 108.354 280.950,109.257 282.337,110.088 283.483 C 110.920 284.629,111.600 285.697,111.600 285.858 C 111.600 286.019,112.410 287.181,113.400 288.441 C 114.390 289.701,115.200 290.846,115.200 290.986 C 115.200 291.417,121.218 299.211,124.476 302.998 C 131.352 310.990,139.116 319.043,144.813 324.093 C 151.769 330.258,153.840 331.982,154.300 331.991 C 154.575 331.996,154.800 332.159,154.800 332.354 C 154.800 332.679,160.830 337.399,163.034 338.800 C 164.402 339.669,168.565 342.553,168.800 342.795 C 169.270 343.277,171.507 344.731,172.800 345.394 C 173.570 345.789,174.290 346.241,174.400 346.400 C 174.510 346.559,175.140 346.991,175.800 347.360 C 176.460 347.729,177.720 348.467,178.600 348.999 C 179.480 349.531,180.920 350.340,181.800 350.797 C 182.680 351.254,184.480 352.253,185.800 353.016 C 192.085 356.652,194.429 357.649,197.245 357.885 L 200.000 358.116 200.000 203.658 L 200.000 49.200 197.700 49.206 C 196.435 49.209,195.031 49.434,194.581 49.706 M206.400 50.600 C 207.145 51.150,207.855 51.599,207.978 51.598 C 208.355 51.595,205.824 49.630,205.422 49.614 C 205.215 49.606,205.655 50.050,206.400 50.600 M243.200 69.220 C 244.587 70.161,245.378 70.435,244.400 69.636 C 243.850 69.186,243.220 68.817,243.000 68.815 C 242.780 68.813,242.870 68.996,243.200 69.220 M284.000 90.631 C 284.000 90.901,286.078 91.656,286.276 91.457 C 286.367 91.367,285.892 91.101,285.220 90.867 C 284.549 90.633,284.000 90.527,284.000 90.631 M289.600 98.286 C 289.930 98.408,290.560 98.674,291.000 98.876 C 291.787 99.238,291.788 99.234,291.024 98.622 C 290.596 98.280,289.966 98.014,289.624 98.032 C 289.085 98.059,289.082 98.093,289.600 98.286 M340.561 119.600 C 340.561 123.010,340.622 124.405,340.697 122.700 C 340.772 120.995,340.772 118.205,340.697 116.500 C 340.622 114.795,340.561 116.190,340.561 119.600 M365.301 133.800 C 365.305 134.680,365.387 134.993,365.483 134.495 C 365.579 133.998,365.575 133.278,365.475 132.895 C 365.375 132.513,365.296 132.920,365.301 133.800 M334.049 141.800 C 334.016 142.240,333.896 143.050,333.783 143.600 L 333.577 144.600 334.006 143.619 C 334.242 143.079,334.361 142.269,334.272 141.819 C 334.113 141.021,334.107 141.021,334.049 141.800 M338.901 146.200 C 338.905 147.080,338.987 147.393,339.083 146.895 C 339.179 146.398,339.175 145.678,339.075 145.295 C 338.975 144.913,338.896 145.320,338.901 146.200 M337.000 162.800 C 336.848 163.491,336.807 164.141,336.909 164.242 C 337.011 164.344,337.209 163.853,337.350 163.150 C 337.683 161.483,337.360 161.160,337.000 162.800 M331.829 192.229 C 331.681 192.815,331.638 193.372,331.732 193.466 C 331.827 193.560,332.024 193.158,332.171 192.571 C 332.319 191.985,332.362 191.428,332.268 191.334 C 332.173 191.240,331.976 191.642,331.829 192.229 M319.200 219.636 C 319.200 219.729,319.033 220.389,318.828 221.103 C 318.623 221.816,318.603 222.400,318.783 222.400 C 319.118 222.400,319.627 219.933,319.353 219.633 C 319.269 219.542,319.200 219.543,319.200 219.636 M277.235 300.529 L 275.879 302.200 277.419 300.713 C 278.267 299.896,278.877 299.144,278.776 299.043 C 278.675 298.942,277.982 299.611,277.235 300.529 M311.711 305.700 C 310.929 306.711,310.663 307.332,311.136 307.040 C 311.610 306.747,312.557 305.200,312.263 305.200 C 312.172 305.200,311.924 305.425,311.711 305.700 M264.581 314.900 L 263.000 316.600 264.700 315.019 C 266.281 313.548,266.584 313.200,266.281 313.200 C 266.216 313.200,265.451 313.965,264.581 314.900 M258.930 320.409 C 257.791 321.504,256.988 322.400,257.145 322.400 C 257.302 322.400,258.317 321.500,259.400 320.400 C 261.944 317.818,261.617 317.824,258.930 320.409 M256.770 328.668 L 255.800 329.736 256.887 328.968 C 257.486 328.546,257.981 328.065,257.987 327.900 C 258.008 327.407,257.789 327.546,256.770 328.668 M250.089 334.377 C 249.380 335.025,248.800 335.670,248.800 335.810 C 248.800 335.950,249.430 335.471,250.200 334.744 C 251.505 333.514,251.767 333.200,251.489 333.200 C 251.428 333.200,250.798 333.730,250.089 334.377 M242.200 334.650 C 241.481 335.262,241.334 335.505,241.833 335.257 C 242.566 334.893,243.941 333.576,243.549 333.614 C 243.467 333.622,242.860 334.088,242.200 334.650 M273.200 348.732 C 272.294 349.615,272.283 349.664,273.078 349.251 C 273.560 349.001,274.073 348.605,274.218 348.371 C 274.710 347.575,274.202 347.755,273.200 348.732 " stroke="none" fill="#0c7ce4" fill-rule="evenodd"></path></g></svg>