<svg id="svg" xmlns="http://www.w3.org/2000/svg" xmlns:xlink="http://www.w3.org/1999/xlink" width="400" height="400" viewBox="0, 0, 400,400"><g id="svgg"><path id="path0" d="M197.333 5.296 C 196.092 5.544,192.749 7.812,187.355 12.064 C 142.504 47.423,91.131 73.150,45.357 83.176 C 30.779 86.369,30.935 86.081,30.928 109.716 C 30.886 244.521,88.064 347.750,187.733 392.812 C 200.843 398.739,204.658 398.064,227.467 385.778 C 309.944 341.350,359.467 257.954,368.508 148.267 C 369.921 131.129,370.136 126.070,370.135 110.130 C 370.133 86.343,370.107 86.290,356.985 83.467 C 309.424 73.235,254.522 45.444,209.674 8.901 C 204.959 5.059,202.342 4.294,197.333 5.296 M210.183 42.772 C 250.808 72.335,297.959 95.892,335.371 105.317 C 346.002 107.996,345.897 107.415,342.618 145.600 C 333.762 248.742,286.143 327.216,209.399 365.140 C 200.778 369.400,200.349 369.413,192.670 365.644 C 119.164 329.568,74.135 260.422,60.315 162.400 C 57.344 141.326,55.771 112.967,57.385 109.566 C 58.189 107.873,62.392 105.600,64.719 105.600 C 65.092 105.600,69.341 104.382,74.161 102.892 C 113.423 90.762,151.683 71.120,189.816 43.519 C 201.313 35.197,199.847 35.251,210.183 42.772 M194.810 45.982 C 194.155 46.358,189.235 49.705,183.877 53.418 C 149.451 77.271,110.958 96.579,76.678 107.189 C 61.742 111.812,61.240 112.862,62.915 136.000 C 70.584 241.967,113.185 317.947,187.105 357.493 C 200.571 364.697,202.431 364.418,222.933 352.106 C 293.582 309.680,333.851 230.972,338.437 126.347 C 339.045 112.499,338.784 112.194,321.425 106.450 C 285.126 94.437,249.468 76.313,215.733 52.729 L 205.600 45.645 200.800 45.471 C 197.575 45.354,195.609 45.522,194.810 45.982 " stroke="none" fill="#000000" fill-rule="evenodd"></path></g></svg>